<svg width="25" height="25" viewBox="0 0 25 25" fill="none" xmlns="http://www.w3.org/2000/svg">
<path d="M12.5 17.0583C16.366 17.0583 19.5 13.9243 19.5 10.0583C19.5 6.19236 16.366 3.05835 12.5 3.05835C8.63401 3.05835 5.5 6.19236 5.5 10.0583C5.5 13.9243 8.63401 17.0583 12.5 17.0583Z" stroke="#3F3E3B" stroke-width="1.5"/>
<path d="M4.5 16.6206C6.38838 18.7305 9.13263 20.0583 12.187 20.0583C17.8827 20.0583 22.5 15.441 22.5 9.74534C22.5 6.69098 21.1722 3.94673 19.0623 2.05835" stroke="#3F3E3B" stroke-width="1.5" stroke-linecap="round"/>
<path d="M7.5 4.61098C8.08518 5.1636 9.29066 6.67411 9.43111 8.29515C9.56238 9.81038 10.5268 11.0415 12 11.0582C12.5662 11.0646 13.1388 10.6406 13.1373 10.0534C13.1368 9.87181 13.1079 9.68617 13.0627 9.51538C12.9998 9.27783 12.9942 9.00454 13.125 8.72497C13.5824 7.74696 14.482 7.48424 15.1949 6.9531C15.5111 6.71753 15.7995 6.46902 15.9266 6.26885C16.2777 5.71623 16.6289 4.61098 16.4533 4.05835" stroke="#3F3E3B" stroke-width="1.5"/>
<path d="M19.5 11.0583C19.2804 11.679 19.125 13.3083 16.6455 13.3342C16.6455 13.3342 14.4497 13.3343 13.791 14.5756C13.264 15.5687 13.5714 16.6445 13.791 17.0583" stroke="#3F3E3B" stroke-width="1.5"/>
<path d="M12.5 22.0583V20.0583" stroke="#3F3E3B" stroke-width="1.5" stroke-linecap="round"/>
<path d="M12.5 22.0583H10.5" stroke="#3F3E3B" stroke-width="1.5" stroke-linecap="round"/>
<path d="M14.5 22.0583H12.5" stroke="#3F3E3B" stroke-width="1.5" stroke-linecap="round"/>
</svg>
