<svg width="25" height="25" viewBox="0 0 25 25" fill="none" xmlns="http://www.w3.org/2000/svg">
<path d="M9.4126 15.992C10.6709 16.3074 12.0985 16.3076 13.5351 15.9226C14.9717 15.5377 16.2079 14.8237 17.14 13.9214" stroke="#3F3E3B" stroke-width="1.5" stroke-linecap="round"/>
<path d="M15.3976 11.2813C15.9311 11.1384 16.1897 10.3738 15.9753 9.57358C15.7609 8.77339 15.1546 8.24057 14.6212 8.38351C14.0877 8.52646 13.8291 9.29102 14.0435 10.0912C14.2579 10.8914 14.8642 11.4242 15.3976 11.2813Z" fill="#3F3E3B"/>
<path d="M9.60225 12.835C10.1357 12.6921 10.3944 11.9275 10.1799 11.1273C9.96553 10.3271 9.35926 9.79431 8.82579 9.93726C8.29232 10.0802 8.03368 10.8448 8.24809 11.645C8.4625 12.4452 9.06878 12.978 9.60225 12.835Z" fill="#3F3E3B"/>
<path d="M3.70356 14.4154C2.59246 10.2687 2.03691 8.19533 2.97995 6.56194C3.92298 4.92856 5.99632 4.37301 10.143 3.26191C14.2897 2.15081 16.363 1.59526 17.9964 2.5383C19.6298 3.48133 20.1853 5.55467 21.2964 9.70135C22.4075 13.8481 22.9631 15.9214 22.0201 17.5548C21.077 19.1882 19.0037 19.7437 14.857 20.8548C10.7103 21.9659 8.63698 22.5215 7.00359 21.5785C5.37021 20.6354 4.81466 18.5621 3.70356 14.4154Z" stroke="#3F3E3B" stroke-width="1.5"/>
<path d="M13.5 16.0587L13.978 17.0325C14.3393 17.7687 15.2249 18.0781 15.9661 17.7272C16.7223 17.3693 17.0394 16.4618 16.6708 15.7107L16.2115 14.7751" stroke="#3F3E3B" stroke-width="1.5"/>
</svg>
