<svg width="25" height="25" viewBox="0 0 25 25" fill="none" xmlns="http://www.w3.org/2000/svg">
<path d="M10 21.8082C8.35866 21.8071 7.11664 21.7948 6.14426 21.6641C6.14424 21.6641 6.14423 21.6641 6.14421 21.6641L6.21085 21.1685L10 21.8082ZM10 21.8082V22.3082V21.8082ZM18.9224 22.1597C17.9132 22.2954 16.6357 22.3072 15 22.3082V21.8082C16.6413 21.8071 17.8834 21.7948 18.8558 21.6641M18.9224 22.1597L18.989 22.6552M18.9224 22.1597C18.9224 22.1597 18.9224 22.1597 18.9223 22.1597L18.989 22.6552M18.9224 22.1597C19.8297 22.0376 20.5449 21.8128 21.1244 21.3899L20.7657 21.0312C20.2866 21.3602 19.6792 21.5534 18.8558 21.6641M18.989 22.6552C17.9431 22.7958 16.6303 22.8073 15 22.8083L21.4817 21.7472C20.7991 22.2678 19.9727 22.5229 18.989 22.6552ZM18.8558 21.6641L18.7892 21.1685M18.8558 21.6641C18.8558 21.6641 18.8558 21.6641 18.8558 21.6641L18.7892 21.1685M18.7892 21.1685C19.5166 21.0708 20.0211 20.9111 20.4047 20.6702M18.7892 21.1685L20.4047 20.6702M20.4047 20.6702L20.4445 20.71L20.4047 20.6702ZM22.1057 18.4141C21.9951 19.2375 21.8019 19.845 21.4728 20.3241L21.1517 20.0029L21.1118 19.963L22.2499 14.5583C22.2487 16.1997 22.2365 17.4417 22.1057 18.4141ZM22.1057 18.4141C22.1057 18.4142 22.1057 18.4142 22.1057 18.4142L21.6102 18.3475L22.1057 18.4141ZM22.6014 18.4807C22.737 17.4715 22.7489 16.1941 22.7499 14.5583L22.6014 18.4807C22.6014 18.4807 22.6014 18.4807 22.6014 18.4807ZM22.6014 18.4807C22.4793 19.3881 22.2545 20.1033 21.8315 20.6828L22.6014 18.4807ZM22.5508 10.583C22.7285 11.2272 22.7477 11.9895 22.7498 13.1212H22.2496C22.2468 12.0222 22.2272 11.339 22.0887 10.7889L22.5508 10.583ZM20.0558 8.19552L20.3904 7.82372C21.2303 8.58234 21.7841 9.10656 22.144 9.66953L21.6818 9.87538C21.3655 9.40441 20.8709 8.93279 20.0558 8.19552ZM13.8707 2.77731L14.052 2.30503C14.5339 2.5772 15.0127 2.98666 15.6884 3.59191L15.3537 3.96372C14.7044 3.3828 14.2748 3.01699 13.8707 2.77731ZM16.0973 4.6323L16.4319 4.26064L19.6473 7.15458L19.3128 7.52622L16.0973 4.6323ZM13.1183 1.94688L12.9371 2.41918C12.4748 2.3269 11.9072 2.31142 11.0298 2.30885V1.80864C11.9429 1.81072 12.5764 1.82662 13.1183 1.94688ZM10.0298 2.30845C8.37851 2.30958 7.12903 2.32175 6.15152 2.45258C5.32398 2.56334 4.71427 2.75662 4.23442 3.08566L3.87571 2.72694C4.45613 2.30373 5.17388 2.07896 6.0852 1.95699C7.09939 1.82126 8.38417 1.80946 10.0298 1.80844V2.30845ZM2.25 13.5583V10.5583H2.75V13.5583H2.25ZM2.2501 14.5583H2.75012C2.75126 16.1997 2.76348 17.4417 2.89422 18.4142L3.38976 18.3475L2.89422 18.4142C3.00492 19.2375 3.19811 19.845 3.52717 20.3241L3.16849 20.6828C2.74548 20.1033 2.52067 19.3881 2.39867 18.4807C2.26299 17.4715 2.25113 16.1941 2.2501 14.5583ZM3.8756 21.3899L4.23428 21.0312L10 22.8083C8.36967 22.8073 7.05695 22.7958 6.01098 22.6552L6.07763 22.1597C6.07762 22.1597 6.07761 22.1597 6.07759 22.1597C5.17021 22.0376 4.45506 21.8128 3.8756 21.3899ZM14 22.3083H11V21.8083H14V22.3083ZM2.75012 9.55834H2.2501C2.25113 7.9226 2.26299 6.64515 2.39867 5.63594C2.52067 4.72856 2.74547 4.0134 3.16849 3.43393L3.52716 3.79261C3.19811 4.27172 3.00492 4.87914 2.89422 5.70256C2.76348 6.67494 2.75126 7.91698 2.75012 9.55834Z" fill="#1C274C" stroke="#3F3E3B"/>
<path d="M6.5 14.5583H14.5" stroke="#3F3E3B" stroke-width="1.5" stroke-linecap="round"/>
<path d="M6.5 18.0583H12" stroke="#3F3E3B" stroke-width="1.5" stroke-linecap="round"/>
<path d="M13.5 2.55835V5.05835C13.5 7.41537 13.5 8.59388 14.2322 9.32612C14.9645 10.0583 16.143 10.0583 18.5 10.0583H22.5" stroke="#3F3E3B" stroke-width="1.5"/>
</svg>
