<svg width="25" height="25" viewBox="0 0 25 25" fill="none" xmlns="http://www.w3.org/2000/svg">
<path d="M19.5993 10.7185C20.7113 12.0327 20.48 13.6398 20.4801 15.0583C20.4801 18.9645 15.2132 20.0583 12.5 20.0583C9.78677 20.0583 4.51994 18.9645 4.51994 15.0583C4.51995 13.6398 4.28875 12.0327 5.40066 10.7185M19.5993 10.7185C19.4048 10.4886 19.1692 10.2677 18.884 10.0583M19.5993 10.7185C20.2993 11.1217 20.4781 9.61304 20.4801 9.12085V7.24596C20.4801 5.62096 19.3629 5.05846 18.4053 5.05846C17.4477 5.05846 15.5324 6.62085 14.894 6.62085C14.1279 6.62085 13.9804 6.46471 12.5 6.46471C11.0197 6.46471 10.8721 6.62085 10.106 6.62085C9.4676 6.62085 7.55236 5.05835 6.59476 5.05835C5.63715 5.05835 4.51995 5.62085 4.51995 7.24585V9.12085C4.52188 9.61304 4.70072 11.1217 5.40066 10.7185M5.40066 10.7185C5.59519 10.4886 5.83082 10.2677 6.11599 10.0583" stroke="#3F3E3B" stroke-width="1.5" stroke-linecap="round"/>
<path d="M13.3258 16.0583C13.3258 16.2309 12.9647 16.3708 12.5193 16.3708C12.074 16.3708 11.7129 16.2309 11.7129 16.0583C11.7129 15.8857 12.074 15.7458 12.5193 15.7458C12.9647 15.7458 13.3258 15.8857 13.3258 16.0583Z" stroke="#3F3E3B" stroke-width="1.5"/>
<path d="M16 13.6521C16 14.0835 15.7834 14.4333 15.5161 14.4333C15.2489 14.4333 15.0323 14.0835 15.0323 13.6521C15.0323 13.2206 15.2489 12.8708 15.5161 12.8708C15.7834 12.8708 16 13.2206 16 13.6521Z" stroke="#3F3E3B" stroke-width="1.5"/>
<path d="M10 13.6521C10 14.0835 9.78336 14.4333 9.51613 14.4333C9.24889 14.4333 9.03226 14.0835 9.03226 13.6521C9.03226 13.2206 9.24889 12.8708 9.51613 12.8708C9.78336 12.8708 10 13.2206 10 13.6521Z" stroke="#3F3E3B" stroke-width="1.5"/>
<path d="M22.5004 15.5271C22.0165 15.2145 19.9197 14.4333 19.1133 14.4333" stroke="#3F3E3B" stroke-width="1.5" stroke-linecap="round"/>
<path d="M20.8871 18.0271C20.4033 17.7145 19.2742 16.9333 18.4678 16.9333" stroke="#3F3E3B" stroke-width="1.5" stroke-linecap="round"/>
<path d="M2.5 15.5271C2.98387 15.2145 5.08065 14.4333 5.8871 14.4333" stroke="#3F3E3B" stroke-width="1.5" stroke-linecap="round"/>
<path d="M4.11279 18.0271C4.59667 17.7145 5.7257 16.9333 6.53215 16.9333" stroke="#3F3E3B" stroke-width="1.5" stroke-linecap="round"/>
</svg>
