<svg width="130" height="78" viewBox="0 0 130 78" fill="none" xmlns="http://www.w3.org/2000/svg">
<path d="M124.867 20.4128C127.741 15.5399 127.346 9.98174 123.986 7.99833C120.625 6.01492 115.571 8.35733 112.697 13.2302C109.823 18.1032 110.218 23.6613 113.578 25.6447C116.939 27.6281 121.993 25.2857 124.867 20.4128Z" fill="#64F0A6"/>
<path d="M95.2584 16.797C96.0398 12.5297 94.2414 8.6247 91.2416 8.07501C88.2418 7.52532 85.1765 10.5391 84.3952 14.8064C83.6138 19.0738 85.4122 22.9788 88.412 23.5284C91.4118 24.0781 94.477 21.0644 95.2584 16.797Z" fill="#64F0A6"/>
<path d="M127.365 36.2667C130.305 33.0773 130.87 28.8153 128.628 26.7471C126.386 24.6789 122.186 25.5877 119.246 28.7771C116.306 31.9664 115.74 36.2285 117.982 38.2967C120.224 40.3649 124.425 39.456 127.365 36.2667Z" fill="#64F0A6"/>
<path d="M111.612 12.6888C113.778 7.4624 112.612 2.01368 109.008 0.518699C105.404 -0.976277 100.726 2.04861 98.5599 7.27497C96.3937 12.5013 97.5596 17.95 101.164 19.445C104.768 20.94 109.446 17.9151 111.612 12.6888Z" fill="#64F0A6"/>
<path d="M113.715 45.3163C112.034 48.686 107.441 51.2037 104.667 49.0044C101.893 46.8018 102.475 42.7697 98.3765 40.7214C94.2784 38.6732 91.1992 41.4803 87.7215 40.5414C84.4333 39.6539 83.8548 34.4932 85.4908 31.2199C88.8529 24.4803 98.3862 19.1717 106.991 23.4675C115.592 27.7633 117.08 38.5768 113.718 45.3163H113.715Z" fill="#64F0A6"/>
<path d="M15.5348 46.6252C15.5811 47.0025 14.7333 47.4156 12.9915 47.8646C11.2497 48.3136 9.49376 48.6465 7.72355 48.8633C5.95334 49.0802 4.80913 49.1172 4.29091 48.9745C3.77269 48.8318 3.48692 48.5428 3.4336 48.1075L0.00512046 20.1179C-0.165504 18.725 3.92803 17.5166 12.2857 16.4929C17.3352 15.8744 20.7151 15.8138 22.4255 16.3112C24.4984 16.8821 25.9684 17.8213 26.8355 19.129C27.9845 20.8144 28.7314 23.0646 29.0762 25.8795C29.549 29.7392 29.2246 32.6213 28.1029 34.526C27.3017 35.9202 26.4453 36.8646 25.5339 37.3591C24.6225 37.8537 23.8582 38.2271 23.2411 38.4795C22.6494 38.6992 21.8946 38.9095 20.9767 39.1103C19.714 39.3828 17.9799 39.6541 15.7744 39.9243L14.7244 40.0087L15.5348 46.6252ZM13.8828 32.7774L14.9275 32.6495C15.4789 32.5819 15.9053 32.4561 16.2067 32.2719C16.5046 32.0586 16.727 31.5896 16.8738 30.8647C17.0462 30.1072 17.0541 29.09 16.8977 27.8131C16.7377 26.5072 16.4718 25.5383 16.0998 24.9064C15.7533 24.242 15.4279 23.8694 15.1235 23.7889C14.8445 23.6758 14.5164 23.6424 14.1392 23.6886L12.7897 23.8539L13.8828 32.7774Z" fill="#3F3E3B"/>
<path d="M44.3907 34.3866C44.6217 36.2729 45.6369 37.1058 47.4361 36.8855C48.4808 36.7575 49.8021 36.2422 51.3999 35.3395C52.9942 34.4079 53.8349 33.9367 53.9219 33.926C54.4733 33.8585 55.3001 34.5967 56.4023 36.1406C57.5046 37.6846 58.1037 38.8483 58.1996 39.6318C58.3383 40.7636 57.2823 41.7619 55.0319 42.6266C52.7814 43.4914 50.5389 44.0606 48.3043 44.3344C46.0988 44.6045 44.2202 44.6579 42.6686 44.4945C41.1459 44.3275 39.8737 44.0416 38.8521 43.6365C37.8559 43.1989 36.9471 42.6327 36.1256 41.9381C35.3332 41.2398 34.7202 40.5638 34.2866 39.91C33.8495 39.2272 33.4761 38.4629 33.1663 37.6172C32.7197 36.3759 32.4129 35.0732 32.2458 33.7093C31.5989 28.4277 32.5312 24.6169 35.0428 22.2768C36.2823 21.094 37.7188 20.1964 39.3521 19.584C40.9855 18.9715 42.9485 18.5249 45.2411 18.2441C52.5831 17.3448 56.5669 19.4488 57.1925 24.5563C57.8572 29.983 54.0688 33.2011 45.8272 34.2107L44.3907 34.3866ZM43.5251 28.0419L43.8771 30.9149C44.7186 30.8118 45.3597 30.3946 45.8003 29.6631C46.2699 28.9281 46.4461 28.0818 46.3288 27.1241C46.1155 25.383 45.5591 24.5675 44.6594 24.6777C43.6438 24.8021 43.2657 25.9235 43.5251 28.0419Z" fill="#3F3E3B"/>
<path d="M79.0503 39.7288C78.5883 40.2861 77.4287 40.6785 75.5715 40.906C73.7142 41.1335 72.1619 41.2058 70.9147 41.123C69.6638 41.0111 68.4426 40.6599 67.251 40.0695C64.9584 38.907 63.5366 36.0768 62.9856 31.5787L62.1538 24.7881L59.9773 25.0547C59.6581 25.0938 59.3415 24.7938 59.0276 24.1548C58.7137 23.5158 58.4857 22.6159 58.3435 21.4551C58.2013 20.2943 58.251 19.2573 58.4926 18.344C58.7597 17.3982 59.1834 16.8897 59.7638 16.8186L61.1567 16.648L60.5116 11.3809C60.4014 10.4813 61.1831 9.64919 62.8567 8.88453C64.5594 8.11632 66.2523 7.62913 67.9355 7.42296C70.5763 7.09948 71.9766 7.59069 72.1366 8.89658L72.9097 15.2084L76.1309 14.8138C76.8855 14.7214 77.396 15.7634 77.6626 17.9399C77.8368 19.3619 77.8066 20.5585 77.5721 21.5298C77.3631 22.4685 76.9974 22.9699 76.4751 23.0338L73.9068 23.3484L74.8826 31.3144C74.9786 32.0979 75.3816 32.6229 76.0917 32.8894C76.7983 33.1268 77.3982 33.2153 77.8916 33.1549C78.4139 33.0909 78.7633 33.2985 78.9399 33.7776C79.1164 34.2567 79.265 34.9896 79.3859 35.9763C79.6241 37.9206 79.5122 39.1715 79.0503 39.7288Z" fill="#3F3E3B"/>
<path d="M67.3087 63.5711C67.8206 67.7499 67.0002 71.0316 64.8475 73.416C62.7202 75.7679 59.3785 77.2229 54.8224 77.781C50.2954 78.3355 46.6868 77.7319 43.9968 75.9701C41.3032 74.1792 39.7004 71.1944 39.1885 67.0155L37.2317 51.0401C37.1428 50.3147 37.8754 49.5622 39.4294 48.7827C41.0125 47.9997 42.8922 47.4749 45.0687 47.2083C46.8099 46.995 47.9825 47.1901 48.5866 47.7936C49.0279 48.2697 49.2716 48.6964 49.3178 49.0737L50.9068 62.0455C51.3084 65.3248 51.6911 67.487 52.0548 68.5323C52.4439 69.545 53.0448 70.0016 53.8573 69.9021C54.6699 69.8026 55.1155 69.2325 55.1943 68.1919C55.2985 67.1188 55.1444 64.8991 54.732 61.5328L53.2071 49.0833C53.1182 48.3578 53.8508 47.6053 55.4048 46.8259C56.9878 46.0429 58.8531 45.5198 61.0006 45.2568C62.8288 45.0328 64.0305 45.2244 64.6056 45.8314C65.0178 46.3111 65.247 46.7396 65.2932 47.1168L67.3087 63.5711Z" fill="#FF5C49"/>
<path d="M83.9311 74.2596C79.1138 74.8497 75.531 74.8173 73.1828 74.1623C71.9906 73.8076 71.366 73.3981 71.3091 72.9338C71.1634 71.744 71.341 70.3084 71.842 68.627C72.343 66.9456 72.8546 66.0729 73.377 66.0089C73.6672 65.9734 74.6784 66.1735 76.4108 66.6093C78.1721 67.0416 79.6187 67.1884 80.7504 67.0498C81.9112 66.9076 82.6569 66.7426 82.9873 66.5549C83.3468 66.3635 83.5017 66.0647 83.4519 65.6585C83.3986 65.2232 83.0675 64.925 82.4587 64.7639C81.8463 64.5738 81.0995 64.4886 80.2182 64.5082C79.337 64.5278 78.3725 64.4692 77.3248 64.3324C76.3061 64.1921 75.3366 63.9721 74.4163 63.6725C73.4959 63.3728 72.6887 62.7942 71.9945 61.9367C71.2968 61.0501 70.8822 60.07 70.7507 58.9963C70.6156 57.8935 70.5451 57.0774 70.5391 56.5479C70.5296 55.9895 70.6694 55.2065 70.9584 54.1991C71.2728 53.1591 71.7699 52.2882 72.4498 51.5863C73.1587 50.8809 74.281 50.1838 75.8166 49.495C77.3813 48.8026 79.1648 48.3338 81.1672 48.0885C83.1695 47.8432 84.8471 47.7114 86.1998 47.693C87.5779 47.642 88.6567 47.6718 89.4361 47.7825C90.2445 47.8897 90.9114 48.0437 91.4367 48.2444C92.3316 48.5766 92.811 49.0039 92.875 49.5263C93.0136 50.658 92.7673 52.0137 92.1361 53.5932C91.5048 55.1728 90.9425 55.9927 90.4492 56.0532C89.9848 56.1101 88.9244 55.9896 87.2679 55.6917C85.6078 55.3649 84.4005 55.2477 83.646 55.3401C82.4272 55.4894 81.8604 55.9123 81.9457 56.6088C81.9991 57.0441 82.4462 57.328 83.2872 57.4606C84.1537 57.5607 85.1815 57.6557 86.3707 57.7457C87.56 57.8357 88.7616 58.0272 89.9758 58.3203C91.2153 58.5808 92.3089 59.2127 93.2566 60.2159C94.2332 61.2156 94.8246 62.557 95.0308 64.2402C95.7275 69.928 92.0276 73.2678 83.9311 74.2596Z" fill="#FF5C49"/>
</svg>
